<svg width="91" height="85" viewBox="0 0 91 85" fill="none" xmlns="http://www.w3.org/2000/svg">
<g id="HTML5_logo_and_wordmark 1" clip-path="url(#clip0_102_103)">
<path id="Vector" d="M19.1682 77.5199L13.3674 16.7162H77.1408L71.34 77.4871L45.2014 84.2503" fill="#E44D26"/>
<path id="Vector_2" d="M45.2324 79.0783V21.7054H71.3008L66.3262 73.579" fill="#F16529"/>
<path id="Vector_3" d="M25.2094 29.1425H45.2484V36.5952H33.9633L34.7015 44.2285H45.2484V51.6648H27.389L25.2094 29.1425ZM27.7406 55.4076H35.7562L36.3187 61.3665L45.2484 63.599V71.3801L28.8656 67.112" fill="#EBEBEB"/>
<path id="Vector_4" d="M65.1931 29.1425H45.1891V36.5952H64.4548L65.1931 29.1425ZM63.7341 44.2285H45.1891V51.6812H55.0329L54.1013 61.3665L45.1891 63.599V71.3472L61.5368 67.112" fill="white"/>
</g>
<defs>
<clipPath id="clip0_102_103">
<rect width="90" height="84.0484" fill="white" transform="translate(0.25 0.20166)"/>
</clipPath>
</defs>
</svg>
