<?xml version="1.0" ?><!DOCTYPE svg  PUBLIC '-//W3C//DTD SVG 1.1//EN'  'http://www.w3.org/Graphics/SVG/1.1/DTD/svg11.dtd'><svg height="100%" style="fill-rule:evenodd;clip-rule:evenodd;stroke-linejoin:round;stroke-miterlimit:2;" version="1.1" viewBox="0 0 24 24" width="100%" xml:space="preserve" xmlns="http://www.w3.org/2000/svg" xmlns:serif="http://www.serif.com/" xmlns:xlink="http://www.w3.org/1999/xlink"><g id="Icon"><path d="M17.66,5.25l-1.678,-1.727c-0.288,-0.297 -0.281,-0.773 0.015,-1.061c0.297,-0.288 0.773,-0.281 1.061,0.015c0,0 1.376,1.417 2.237,2.304c0.66,0.679 0.66,1.759 0,2.438c-0.861,0.887 -2.237,2.304 -2.237,2.304c-0.288,0.296 -0.764,0.303 -1.061,0.015c-0.296,-0.288 -0.303,-0.764 -0.015,-1.061l1.678,-1.727l-9.64,-0c-0.862,-0 -1.689,0.342 -2.298,0.952c-0.61,0.609 -0.952,1.436 -0.952,2.298l0,2c0,0.414 -0.336,0.75 -0.75,0.75c-0.414,0 -0.75,-0.336 -0.75,-0.75c0,0 0,-0.898 0,-2c0,-1.26 0.501,-2.468 1.391,-3.359c0.891,-0.891 2.099,-1.391 3.359,-1.391l9.64,-0Z"/><path d="M5.38,17.25l9.64,0c0.862,0 1.689,-0.342 2.298,-0.952c0.61,-0.609 0.952,-1.436 0.952,-2.298l0,-2c0,-0.414 0.336,-0.75 0.75,-0.75c0.414,0 0.75,0.336 0.75,0.75c0,0 0,0.898 0,2c0,1.26 -0.5,2.468 -1.391,3.359c-0.891,0.891 -2.099,1.391 -3.359,1.391l-9.64,0l1.678,1.727c0.288,0.297 0.282,0.773 -0.015,1.061c-0.297,0.288 -0.772,0.281 -1.061,-0.015c0,-0 -1.376,-1.417 -2.237,-2.304c-0.66,-0.679 -0.66,-1.759 -0,-2.438c0.861,-0.887 2.237,-2.304 2.237,-2.304c0.289,-0.296 0.764,-0.303 1.061,-0.015c0.297,0.288 0.303,0.764 0.015,1.061l-1.678,1.727Z"/></g></svg>