<?xml version="1.0" encoding="iso-8859-1"?>
<!-- Generator: Adobe Illustrator 19.1.0, SVG Export Plug-In . SVG Version: 6.00 Build 0)  -->
<svg version="1.1" id="Capa_1" xmlns="http://www.w3.org/2000/svg" xmlns:xlink="http://www.w3.org/1999/xlink" x="0px" y="0px"
	 viewBox="0 0 43 43" style="enable-background:new 0 0 43 43;" xml:space="preserve">
<g>
	<g>
		<path d="M43,39.5v-36c0-1.104-0.896-2-2-2s-2,0.896-2,2v36c0,1.104,0.896,2,2,2S43,40.604,43,39.5z"/>
		<path d="M5.545,2.161C2.526,2.161,0,4.588,0,7.807v27.352c0,3.22,2.526,5.648,5.545,5.648c0.314,0,0.749-0.074,1.029-0.216
			l25.228-12.759c3.156-1.572,4.787-3.709,4.787-6.35c0-1.88-0.782-4.509-4.557-6.344L6.562,2.375
			C6.282,2.234,5.857,2.161,5.545,2.161z M32.62,21.483c0,0.411,0,1.504-2.552,2.775l-24.902,12.5C4.299,36.508,4,35.404,4,35.159
			V7.807c0-0.243,0.299-1.348,1.168-1.596l24.981,12.514C32.495,19.865,32.62,21.041,32.62,21.483z"/>
	</g>
</g>
<g>
</g>
<g>
</g>
<g>
</g>
<g>
</g>
<g>
</g>
<g>
</g>
<g>
</g>
<g>
</g>
<g>
</g>
<g>
</g>
<g>
</g>
<g>
</g>
<g>
</g>
<g>
</g>
<g>
</g>
</svg>
